<?xml version="1.0" encoding="utf-8"?>
<!-- Generator: Adobe Illustrator 24.0.1, SVG Export Plug-In . SVG Version: 6.00 Build 0)  -->
<svg version="1.1" id="Capa_1" xmlns="http://www.w3.org/2000/svg" xmlns:xlink="http://www.w3.org/1999/xlink" x="0px" y="0px"
	 viewBox="0 0 512 512" style="enable-background:new 0 0 512 512;" xml:space="preserve">
<style type="text/css">
	.st0{fill:#555555;}
</style>
<g>
	<g>
		<path class="st0" d="M437,75C388.7,26.6,324.4,0,256,0S123.3,26.6,75,75S0,187.6,0,256s26.6,132.7,75,181s112.6,75,181,75
			s132.7-26.6,181-75s75-112.6,75-181S485.4,123.3,437,75z M256,481.7C131.5,481.7,30.3,380.5,30.3,256S131.5,30.3,256,30.3
			S481.7,131.5,481.7,256S380.5,481.7,256,481.7z"/>
	</g>
</g>
<g>
	<g>
		<path class="st0" d="M256,50.2c-0.6,0-1.1,0-1.7,0c-0.1,0-0.3,0-0.4,0c-0.2,0-0.5,0-0.7,0C141.3,51.8,50.8,143,50.3,255.1
			c0,0.1,0,0.2,0,0.2c0,0,0,0.1,0,0.1c0,0.2,0,0.4,0,0.6c0,113.5,92.3,205.8,205.8,205.8S461.8,369.5,461.8,256S369.5,50.2,256,50.2
			z M271.1,430.8v-19.2c0-8.4-6.8-15.1-15.1-15.1s-15.1,6.8-15.1,15.1v19.2c-84.9-7.3-152.7-75.3-159.7-160.3h16.5
			c8.4,0,15.1-6.8,15.1-15.1c0-8.4-6.8-15.1-15.1-15.1H81.3c7.5-83.7,74-150.6,157.5-158.8v15.5c0,8.4,6.8,15.1,15.1,15.1
			c8.4,0,15.1-6.8,15.1-15.1V81c84.7,6.3,152.9,73,161.5,157h-18.3c-8.4,0-15.1,6.8-15.1,15.1c0,8.4,6.8,15.1,15.1,15.1H431
			C425,354.3,356.8,423.4,271.1,430.8z"/>
	</g>
</g>
<g>
	<g>
		<path class="st0" d="M317.3,194.7c-5.9-5.9-15.5-5.9-21.4,0L256,234.6l-77.4-77.4c-5.9-5.9-15.5-5.9-21.4,0s-5.9,15.5,0,21.4
			l88.1,88.1c2.8,2.8,6.7,4.4,10.7,4.4c4,0,7.9-1.6,10.7-4.4l50.6-50.6C323.2,210.2,323.2,200.6,317.3,194.7z"/>
	</g>
</g>
</svg>
