<?xml version="1.0" encoding="iso-8859-1"?>
<!-- Generator: Adobe Illustrator 19.0.0, SVG Export Plug-In . SVG Version: 6.00 Build 0)  -->
<svg version="1.1" id="Layer_1" xmlns="http://www.w3.org/2000/svg" xmlns:xlink="http://www.w3.org/1999/xlink" x="0px" y="0px"
	 viewBox="0 0 330.005 330.005" style="enable-background:new 0 0 330.005 330.005;" xml:space="preserve">
<path id="XMLID_2_" d="M325.394,165.004c0-63.778-37.771-121.494-96.224-147.037c-7.594-3.318-16.436,0.147-19.752,7.739
	c-3.316,7.591,0.149,16.434,7.738,19.751c47.527,20.768,78.237,67.692,78.237,119.547c0,41.08-19.319,79.091-50.993,103.434
	l10.189-51.223c1.616-8.125-3.66-16.023-11.785-17.639c-8.129-1.615-16.022,3.66-17.639,11.785l-16.711,84.005
	c-0.775,3.902,0.029,7.952,2.24,11.261c2.21,3.308,5.644,5.602,9.545,6.378l84.006,16.709c0.988,0.196,1.973,0.291,2.943,0.291
	c7.01,0,13.275-4.939,14.695-12.077c1.616-8.125-3.66-16.021-11.785-17.638l-46.007-9.15
	C302.213,261.162,325.394,214.92,325.394,165.004z"/>
<path id="XMLID_4_" d="M87.209,130.428c0.988,0.196,1.973,0.291,2.943,0.291c7.01,0,13.275-4.939,14.695-12.077l16.709-84.005
	c1.616-8.125-3.66-16.022-11.785-17.638L25.768,0.29C17.643-1.322,9.746,3.951,8.129,12.075c-1.616,8.126,3.66,16.022,11.785,17.639
	l46.043,9.157C27.838,68.879,4.611,115.196,4.611,165.004c0,63.78,37.771,121.495,96.225,147.036
	c1.956,0.854,3.993,1.259,5.998,1.259c5.78,0,11.29-3.362,13.753-8.998c3.316-7.592-0.148-16.435-7.739-19.751
	c-47.526-20.767-78.236-67.691-78.236-119.546c0-40.979,19.341-79.053,50.998-103.419L75.424,112.79
	C73.808,120.915,79.084,128.811,87.209,130.428z"/>
<g>
</g>
<g>
</g>
<g>
</g>
<g>
</g>
<g>
</g>
<g>
</g>
<g>
</g>
<g>
</g>
<g>
</g>
<g>
</g>
<g>
</g>
<g>
</g>
<g>
</g>
<g>
</g>
<g>
</g>
</svg>
