<?xml version="1.0" encoding="utf-8"?>
<!-- Generator: Adobe Illustrator 17.1.0, SVG Export Plug-In . SVG Version: 6.00 Build 0)  -->
<!DOCTYPE svg PUBLIC "-//W3C//DTD SVG 1.1//EN" "http://www.w3.org/Graphics/SVG/1.1/DTD/svg11.dtd">
<svg version="1.1" id="Layer_1" xmlns="http://www.w3.org/2000/svg" xmlns:xlink="http://www.w3.org/1999/xlink" x="0px" y="0px"
	 viewBox="134.4 231.6 343.1 328.8" enable-background="new 134.4 231.6 343.1 328.8" xml:space="preserve">
<g>
	<path d="M283.4,295.1c0-13,0-25.7,0-38.6c0-14.2,9.9-25,22.9-24.8c12.7,0.2,22.2,10.6,22.2,24.4c0,26.1,0,52,0,78.1
		c0,14.2-9.1,23.3-22.9,23.1c-13.2,0-22.2-9.3-22.2-22.9C283.2,321.4,283.4,308.2,283.4,295.1z"/>
	<path d="M355.8,387.7c0-10.8,4.1-17.3,15.1-20.9c25.5-8.9,51.2-17.3,76.9-25.5c12.3-3.9,25,3,28.7,14c3.9,12.3-2.6,24.6-15.8,28.9
		c-25.5,8.4-50.7,16.4-76.4,24.4C369.6,413.4,355.8,403,355.8,387.7z"/>
	<path d="M283.4,473c0.9,5-1.7,9.5-5,14c-15.1,20.9-30.2,41.9-45.3,62.8c-8,11-21.6,13.8-31.5,6.7c-11.2-8-13.2-20.9-4.7-32.8
		c14.9-20.9,30.2-41.9,45.3-62.8c5.6-7.8,13.2-12.1,23.3-10.4c8.2,1.5,13.2,6,16.6,13.4C283.7,466.5,283.2,469.5,283.4,473z"/>
	<path d="M420.3,537.3c0,10.4-6.5,18.8-16.4,22c-8.9,2.8-18.3-0.4-24.6-8.9c-7.8-10.6-15.3-21.2-22.9-31.7
		c-7.8-10.8-15.8-21.4-23.5-32.2c-5.6-8-6.3-18.8-1.7-26.1c5.2-8.2,14-11.4,24.4-9.7c6.3,1.1,10.4,5.4,13.8,10.1
		c15.5,20.9,30.7,42.3,46,63.3C418.6,528.2,421,532.5,420.3,537.3z"/>
	<path d="M256,387.7c0,15.3-13.6,25.7-28.3,21.2c-25.5-8-50.9-16.2-76.4-24.4c-13.2-4.3-19.6-16.6-15.8-28.9
		c3.7-11.7,16.4-17.9,29.4-13.8c25,7.8,49.9,16,74.7,24.4C251.3,369.8,256,376.9,256,387.7z"/>
</g>
</svg>
