<?xml version="1.0" encoding="utf-8"?>
<!-- Generator: Adobe Illustrator 24.0.1, SVG Export Plug-In . SVG Version: 6.00 Build 0)  -->
<svg version="1.1" id="Capa_1" xmlns="http://www.w3.org/2000/svg" xmlns:xlink="http://www.w3.org/1999/xlink" x="0px" y="0px"
	 viewBox="0 0 474 474" style="enable-background:new 0 0 474 474;" xml:space="preserve">
<path d="M459,252.1h-3l-43.2-116.8c11.5-2.4,22.2-8.1,30.6-16.5c5.9-5.9,5.9-15.4,0-21.2c-5.9-5.9-15.4-5.9-21.2,0
	c-6,6-14.3,9.3-22.8,9c-8.3-0.3-15.9-3.8-21.3-9.9c-16.9-19.2-41.3-30.2-66.8-30.2c-22.7,0-43.4,8.5-59.2,22.5V50.5
	c0-8.3-6.7-15-15-15s-15,6.7-15,15V89c-15.8-14-36.5-22.5-59.2-22.5c-25.6,0-49.9,11-66.8,30.2c-5.4,6.2-13,9.7-21.3,9.9
	c-8.5,0.3-16.8-3-22.8-9c-5.9-5.9-15.4-5.9-21.2,0s-5.9,15.4,0,21.2c8.4,8.4,19.1,14.1,30.6,16.5L18,252.1h-3c-8.3,0-15,6.7-15,15
	v3.4c0,41.1,33.4,74.6,74.6,74.6h1.9c41.1,0,74.6-33.4,74.6-74.6v-3.4c0-8.3-6.7-15-15-15h-3L89.5,134.5c11.2-3,21.2-9.1,29-18
	c11.2-12.7,27.4-20,44.4-20c32.6,0,59.2,26.5,59.2,59.2v211.1c-20.4,5.4-36.4,21.4-41.8,41.8h-17.4c-8.3,0-15,6.7-15,15
	s6.7,15,15,15h148.3c8.3,0,15-6.7,15-15s-6.7-15-15-15h-17.4c-5.4-20.4-21.4-36.4-41.8-41.8V155.7c0-32.6,26.5-59.2,59.2-59.2
	c17,0,33.1,7.3,44.4,20c7.8,8.9,17.9,15,29,18L341,252.1h-3c-8.3,0-15,6.7-15,15v3.4c0,41.1,33.4,74.6,74.6,74.6h1.9
	c41.1,0,74.6-33.4,74.6-74.6v-3.4C474,258.8,467.3,252.1,459,252.1z M76.4,315.1h-1.9c-20.6,0-37.9-14-43-33h88
	C114.4,301.1,97,315.1,76.4,315.1z M39.3,252.1l36.2-97.7l36.2,97.7H39.3z M261.5,408.5h-49c5.1-8.2,14.1-13.7,24.5-13.7
	S256.4,400.3,261.5,408.5z M398.5,154.4l36.2,97.7h-72.3L398.5,154.4z M399.5,315.1h-1.9c-20.6,0-37.9-14-43-33h87.9
	C437.4,301.1,420,315.1,399.5,315.1z"/>
</svg>
