<?xml version="1.0" encoding="utf-8"?>
<!-- Generator: Adobe Illustrator 17.1.0, SVG Export Plug-In . SVG Version: 6.00 Build 0)  -->
<!DOCTYPE svg PUBLIC "-//W3C//DTD SVG 1.1//EN" "http://www.w3.org/Graphics/SVG/1.1/DTD/svg11.dtd">
<svg version="1.1" id="Layer_1" xmlns="http://www.w3.org/2000/svg" xmlns:xlink="http://www.w3.org/1999/xlink" x="0px" y="0px"
	 viewBox="158.6 200.3 343.3 349.8" enable-background="new 158.6 200.3 343.3 349.8" xml:space="preserve">
<path d="M320.8,549.4c-1.3,0-2.4,0-3.7-0.2c-6.7,0.6-13.2-0.9-19.4-3c-15.1-5.2-22-17.3-17.3-32.4c8.4-27.2,21.8-52,40.6-73.6
	c15.5-17.7,33.2-32.8,53.5-44.9c5.4-3.2,10.8-5.4,17.3-4.7c2.6,0.4,5.4,0.4,7.6,1.9c4.3,2.8,8.9,5,13.8,6.3c0.9,0.2,1.3,0.9,1.9,1.3
	c1.7,0,3.7,0.2,5.4,0.2c1.1-1.1,2.4-1.1,3.7-1.1c15.5-1.3,26.1-9.5,31.5-24c7.3-20.1-3.5-41.4-23.7-47.9c-1.7-0.6-3.7-0.4-5-1.9l0,0
	c-1.5-0.9-3.2,0-4.7-0.6c-0.6,0-1.1,0-1.7,0c-1.5,0.6-3.2-0.2-4.7,0.6l0,0c-1.1,1.3-2.8,1.3-4.3,1.7c-13,3.9-22.2,11.9-25.7,25.3
	c-2.4,9.3-7.8,14.2-17.1,16.6c-9.1,2.2-17.3,6.3-25.7,10.1c-27,12.5-51.2,29.1-73,49.2c-15.3,14-27.6,30.2-38.6,47.7
	c-3.2,5.2-7.6,9.3-12.7,12.3c-9.1,5.4-17.9,1.3-22.7-5.2c-3-4.3-5.2-9.1-6.5-14c-3-11.9-1.9-24,0.2-35.8c0.2-0.9,0.4-1.7,1.3-2.4
	l0,0c0.2-5.2,1.7-10.1,3.5-15.1c0.4-1.3,0.9-2.8,1.9-3.7c0.2-0.4,0.4-1.1,0.6-1.5c0.6-6,3.7-11.2,6-16.6
	c12.5-27.2,30.7-50.5,52.5-71c3-3,6-6.7,11-6.9c3-0.2,5.6,0.4,8,2.2c7.6,5.4,16,8.9,25.7,8.6c17.1-0.4,31.9-12.1,35.8-28.7
	c4.7-20.7-8.2-40.2-27.4-44c-22-4.5-36.3,3.9-44.3,24.2c-0.9,1.9-0.9,4.3-1.3,6.5c-1.5,5.6-5,9.5-10.4,11.9
	c-20.3,8.9-38.9,20.5-55.7,34.8c-7.3,6-14.2,12.5-20.1,20.1c-1.9,2.4-3.9,4.5-6.7,6c-5.6,3.2-11.2,0-11.4-6.5c0-0.9,0.2-1.5-0.2-2.4
	c0.2-5.2-0.6-10.4,0.6-15.3c-0.9-4.7,1.3-8.9,2.6-13.2c0.9-2.8,1.1-6,3.7-8c0.2-0.2,0.2-0.4,0.2-0.6c0-2.8,1.3-5.2,2.4-7.6
	c2.8-5.6,4.7-11.9,9.3-16.6l0,0c0.2-1.3,0.6-2.4,1.3-3.7c15.8-25,36.3-45.3,62-60c7.3-4.1,14.9-7.1,22.7-10.4
	c13.8-5.8,28.3-9.5,43-11.7c3-0.4,6.3,1.1,9.3-0.2l0,0c1.5-1.3,3-0.9,4.5-0.2c1.3,0,2.6,0,3.9,0c5.4-0.9,10.8-1.5,16,0.2
	c2.6,0.9,4.7-0.6,7.3-0.2c4.5,0.9,9.1,1.3,13.4,2.2c3,0.9,6.3,1.3,9.3,2.2c1.1,0.2,1.9,0.9,2.6,1.7c0.2,0,0.4,0,0.9,0
	c1.3-0.9,2.6,0,3.9,0.2c1.3,0.4,2.8,1.1,4.3,1.5c1.7,0.6,3.7,0.9,5.2,1.7c1.5,0.6,3,1.1,4.5,1.7c1.3,0.6,2.6,1.1,3.9,1.5
	c2.2,1.1,4.3,1.7,6.3,2.8c0.4,0.2,0.6,0.2,0.9,0.4c1.9,1.1,3.9,1.9,5.6,2.8c0.4,0.2,0.6,0.2,0.9,0.4c5.8,2.8,11.2,6.3,16.6,9.7
	c1.3,0.9,2.6,1.7,3.9,2.6c1.3,1.1,2.6,2.2,4.1,3c0.4,0.2,0.9,0.6,1.3,0.9c1.5,1.1,3,2.4,4.3,3.7c0.9,0.6,1.7,1.1,2.4,1.7
	c0.9,0.9,1.7,1.7,2.6,2.4c1.3,1.3,2.6,2.8,4.3,3.7c1.9,1.5,3.2,3.7,5,5.4c1.5,1.7,3.2,3.2,4.7,4.7c3.9,4.7,7.8,9.5,11.4,14.5
	c0.6,0.9,1.1,1.7,1.7,2.6c0.6,1.1,1.5,2.2,2.2,3.2c0.4,0.6,0.6,1.1,1.1,1.7c0.9,1.5,1.7,3,2.8,4.3c0.2,0.2,0.4,0.6,0.4,0.9
	c0.4,1.1,1.1,2.2,1.9,3c0.2,0.2,0.4,0.6,0.4,0.9c0.6,1.5,1.5,3,2.6,4.5c0.2,0.2,0.4,0.6,0.4,0.9c0.6,1.3,1.3,2.8,1.9,4.1
	c0.4,0.9,0.6,1.5,1.1,2.4c0.4,1.7,1.3,3,2.2,4.5c0.4,0.9,0.6,1.5,1.1,2.4c0.4,1.1,0.9,2.2,1.5,3.2c0.2,0.2,0.2,0.6,0.4,1.1
	c1.3,3.2,2.4,6.5,3.5,9.7c0.4,1.3,0.9,2.4,1.1,3.7c0.2,0.6,0.4,1.5,0.6,2.2c0.4,1.3,0.9,2.6,1.1,3.9c1.5,5.8,2.4,11.7,3.5,17.7
	c0.2,1.1,0.2,2.2,0.4,3c0,1.5-0.2,3,0,4.3c0.2,1.5,0.4,3,0,4.5c0.2,3.5-0.4,6.7,0.4,10.1c-0.4,1.3-0.4,2.8,0,4.1
	c-0.9,2.8,0.2,5.8-0.6,8.9c0,1.5-0.2,3.2-0.2,4.7c0.2,0.2,0.4,0.6,0.4,1.1c0,1.3-0.2,2.6-0.2,3.9c0,1.1,0,1.9-0.2,3
	c-0.9,3.9-1.3,7.6-1.9,11.4c0,0.6-0.2,1.3-0.4,1.7c-0.9,3.9-1.7,7.8-2.8,11.7c-0.6,2.2-1.3,4.1-1.9,6.3c-3,8.9-6,17.7-10.6,25.9
	c-0.4,0.9-0.9,1.7-1.3,2.6c-2.4,3.7-3.7,7.8-7.1,10.6c-0.9,0.6-1.3,1.3-1.5,2.4c0,1.7-0.9,2.6-2.2,3.2c-0.6,1.1-1.5,2.2-2.2,3.2
	c-2.2,5.2-5.6,9.3-9.9,12.5l0,0c-0.6,0.4-0.4,1.5-0.9,1.9c-5.8,5.6-10.6,12.5-17.9,16.6c-0.4,0.4-1.1,0.9-1.5,1.3
	c-2.6,3.7-6,6.3-10.4,8c-1.1,0-1.7,0.6-2.2,1.5c-3,4.1-7.8,6-11.9,8.4c-5,3-10.1,5.6-15.5,8c-1.3,0.4-2.4,1.1-3.7,0.9
	c-2.2,1.1-4.7,1.3-6.9,2.6c-4.3,2.6-9.1,3.9-14,4.5c-0.9-0.2-1.5,0.2-2.4,0.6c-0.4,0.4-0.9,0.9-1.5,1.1c-4.5,1.3-9.1,1.7-13.6,3
	c-6,1.5-12.3,1.7-18.6,1.5c-3.2,0-6.7,0.2-9.9,0.2C326,550.5,323.4,550.5,320.8,549.4z"/>
</svg>
