<?xml version="1.0" encoding="utf-8"?>
<!-- Generator: Adobe Illustrator 24.0.1, SVG Export Plug-In . SVG Version: 6.00 Build 0)  -->
<svg version="1.1" id="Layer_1" xmlns="http://www.w3.org/2000/svg" xmlns:xlink="http://www.w3.org/1999/xlink" x="0px" y="0px"
	 viewBox="0 0 283.5 283.5" style="enable-background:new 0 0 283.5 283.5;" xml:space="preserve">
<path d="M265.8,142c0,5.9,0,11.8,0,17.7c-1.3,7.4-2.6,14.8-3.8,22.2c-2.4,6.3-4.7,12.5-7.1,18.8c-2,3.7-4,7.4-6.1,11.1
	c-0.1,4-3.5,6.3-5.2,9.4c-4,5.6-9.1,10.3-13.9,15.2c-1.8,1.7-3.5,3.6-5.4,5.3c-4.9,4-10,7.6-15.2,11c-6.5,3.8-12.9,7.7-20.4,9.1
	c-5.6,1.7-11.1,3.4-16.7,5.1c-13.8,3-27.9,3.5-42,3c-6.6-1.1-13.3-2.2-19.9-3.3c-5-1.6-10-3.2-15-4.8c-8.6-1.9-16-6.4-23.3-11
	c-4.2-2.9-8.4-5.7-12.2-9.1c-3.4-2.4-6.2-5.4-9.1-8.3c-3.9-3.6-7.1-7.8-10.2-12.1c-3.2-5.1-7.9-9.3-9-15.5c-0.7-2.2-1.6-4.2-3.1-6
	c-2-5.3-4-10.6-6-15.9c-4.2-15.4-5-31.1-3.9-47c1-5,1.9-10,2.9-15c2.4-6.7,4.8-13.3,7.2-20c1.3-1.5,2.1-3.2,2.7-5.1
	c0.7-5.4,4.5-9.2,7.3-13.4c3.7-5.3,7.7-10.3,12.2-15c2.3-2.2,4.6-4.5,7.2-6.3c4-3.8,8.6-7,13.2-10.1c6-3.3,11-8.4,18.3-9.1
	c0.7-0.3,1.4-0.6,2-0.9c6-2,12-4.1,18-6.1c7-1.3,14-2.5,21-3.8c1.7-0.1,3.3-0.2,5-0.2c11.7-0.1,23.4,0.7,35,2.9
	c4.1,2.1,8.5,3.3,13,4.2c-0.8,3.3-3.5,1.9-5.5,2.4c-2.8,0.1-5.6-0.4-8.4,0.3c-0.4,0.2-0.9,0.4-1.3,0.7c-0.4,0.2-0.9,0.4-1.4,0.5
	c-1.9,0.4-3.8,0.3-5.6,1c-28,5.9-50.9,20-67.8,43.3c-1,1-1.8,2-2.4,3.3c-1.9,3.4-4.4,6.3-5.9,9.9c-0.9,1.7-1.5,3.5-2.1,5.3
	c-7.3,16.7-9.4,34.1-6.1,51.8c5.2,27.8,26.1,48.7,54,53.5c16.1,2.7,31.5-0.6,45.2-10.1c1.1-0.8,2.4-1.3,3.2-2.5
	c0.4-0.5,0.8-1.1,1.2-1.6c0.3-0.4,0.6-0.7,0.9-1c3.2-3.1,6.4-6.3,9.3-9.7c1.9-1.7,3.1-3.9,4.3-6.2c9.5-18.2,9.6-36.7,2-55.4
	c-2.2-5.5-7-9.3-10-14.2c-1-1.4-2.2-2.6-3.7-3.5c-8.2-7.4-17.9-11.9-28.5-14.6c-3.8-1-4.9-3.7-4.5-7.2c0.7-5.5,1.6-10.9,3.9-15.9
	c3-6.5,6.8-12.5,12-17.5c1.2-0.8,2.5-1.3,3.4-2.4c1.6-2.2,3.9-3.2,6.4-4c2.2-0.6,4.2-1.7,6.2-2.8c1.1-0.5,2.1-1,3.3-1.2
	c1.6-0.2,3.2-1.2,4.8,0c1,0.6,2,1.3,3,1.9c1.3,1.1,3,0.5,4.5,1c3.9,1.1,7.4,3.1,10.8,5.1c6.1,4.2,12.4,8.1,18,13.1
	c1.1,1.1,2.2,2.3,3.4,3.4c5.4,5.3,10.7,10.7,15,17c1.4,2.8,4.3,4.9,4.4,8.4c2.3,4.3,4.6,8.6,6.9,13c2,5.7,4.1,11.4,6.1,17.1
	C263.3,128,264.5,135,265.8,142z"/>
</svg>
