<?xml version="1.0" encoding="utf-8"?><svg xmlns="http://www.w3.org/2000/svg" xmlns:xlink="http://www.w3.org/1999/xlink"><symbol viewBox="0 0 12 8" id="arrow-down" xmlns="http://www.w3.org/2000/svg"><path d="M6 7.5c.215 0 .43-.084.594-.252l5.16-5.28a.874.874 0 000-1.216.827.827 0 00-1.189 0L6 5.424 1.435.752a.827.827 0 00-1.189 0 .874.874 0 000 1.216l5.16 5.28A.827.827 0 006 7.5z"/></symbol><symbol viewBox="0 0 451.846 451.847" id="arrow-right" xmlns="http://www.w3.org/2000/svg"><path d="M345.441 248.292L151.154 442.573c-12.359 12.365-32.397 12.365-44.75 0-12.354-12.354-12.354-32.391 0-44.744L278.318 225.92 106.409 54.017c-12.354-12.359-12.354-32.394 0-44.748 12.354-12.359 32.391-12.359 44.75 0l194.287 194.284c6.177 6.18 9.262 14.271 9.262 22.366 0 8.099-3.091 16.196-9.267 22.373z"/></symbol><symbol viewBox="0 0 512 512" id="cart" xmlns="http://www.w3.org/2000/svg"><path d="M165 331h272c6.7 0 12.6-4.4 14.4-10.9l60-210c1.3-4.5.4-9.4-2.4-13.2-2.8-3.8-7.3-6-12-6H130.4l-10.7-48.3C118.1 35.9 112 31 105 31H15C6.7 31 0 37.7 0 46s6.7 15 15 15h78c1.9 8.6 51.3 230.9 54.2 243.7-15.9 6.9-27.1 22.8-27.1 41.3 0 24.8 20.2 45 45 45h272c8.3 0 15-6.7 15-15s-6.7-15-15-15H165c-8.3 0-15-6.7-15-15s6.7-15 15-15zm312.1-210l-51.4 180H177l-40-180h340.1zM150 436c0 24.8 20.2 45 45 45s45-20.2 45-45-20.2-45-45-45-45 20.2-45 45zm45-15c8.3 0 15 6.7 15 15s-6.7 15-15 15-15-6.7-15-15 6.7-15 15-15zm167 15c0 24.8 20.2 45 45 45s45-20.2 45-45-20.2-45-45-45-45 20.2-45 45zm45-15c8.3 0 15 6.7 15 15s-6.7 15-15 15-15-6.7-15-15 6.7-15 15-15z"/></symbol><symbol viewBox="0 -31 512 512" id="cart-2" xmlns="http://www.w3.org/2000/svg"><path d="M166 300.004h271.004c6.71 0 12.598-4.438 14.414-10.883l60.004-210.004c1.289-4.527.406-9.39-2.434-13.152A15.034 15.034 0 00497.004 60H131.37l-10.723-48.25A15 15 0 00106 0H15C6.71 0 0 6.71 0 15c0 8.293 6.71 15 15 15h78.96l54.169 243.75C132.19 280.68 121 296.543 121 315.004c0 24.812 20.187 45 45 45h271.004c8.293 0 15-6.707 15-15 0-8.29-6.707-15-15-15H166c-8.262 0-15-6.723-15-15s6.738-15 15-15zm-15 105c0 24.816 20.188 45 45.004 45 24.812 0 45-20.184 45-45 0-24.813-20.188-45-45-45-24.816 0-45.004 20.187-45.004 45zm211.004 0c0 24.816 20.187 45 45 45 24.816 0 45-20.184 45-45 0-24.813-20.184-45-45-45-24.813 0-45 20.187-45 45zm0 0"/></symbol><symbol id="clock" viewBox="0 0 512 512" xml:space="preserve" xmlns="http://www.w3.org/2000/svg"><style>.est0{fill:#555}</style><path class="est0" d="M437 75C388.7 26.6 324.4 0 256 0S123.3 26.6 75 75 0 187.6 0 256s26.6 132.7 75 181 112.6 75 181 75 132.7-26.6 181-75 75-112.6 75-181-26.6-132.7-75-181zM256 481.7C131.5 481.7 30.3 380.5 30.3 256S131.5 30.3 256 30.3 481.7 131.5 481.7 256 380.5 481.7 256 481.7z"/><path class="est0" d="M256 50.2h-2.8C141.3 51.8 50.8 143 50.3 255.1v.9c0 113.5 92.3 205.8 205.8 205.8S461.8 369.5 461.8 256 369.5 50.2 256 50.2zm15.1 380.6v-19.2c0-8.4-6.8-15.1-15.1-15.1s-15.1 6.8-15.1 15.1v19.2C156 423.5 88.2 355.5 81.2 270.5h16.5c8.4 0 15.1-6.8 15.1-15.1 0-8.4-6.8-15.1-15.1-15.1H81.3c7.5-83.7 74-150.6 157.5-158.8V97c0 8.4 6.8 15.1 15.1 15.1 8.4 0 15.1-6.8 15.1-15.1V81c84.7 6.3 152.9 73 161.5 157h-18.3c-8.4 0-15.1 6.8-15.1 15.1 0 8.4 6.8 15.1 15.1 15.1H431c-6 86.1-74.2 155.2-159.9 162.6z"/><path class="est0" d="M317.3 194.7c-5.9-5.9-15.5-5.9-21.4 0L256 234.6l-77.4-77.4c-5.9-5.9-15.5-5.9-21.4 0s-5.9 15.5 0 21.4l88.1 88.1c2.8 2.8 6.7 4.4 10.7 4.4 4 0 7.9-1.6 10.7-4.4l50.6-50.6c5.9-5.9 5.9-15.5 0-21.4z"/></symbol><symbol viewBox="0 0 20 20" id="close" xmlns="http://www.w3.org/2000/svg"><path d="M11.832 10.016L19.62 2.23A1.294 1.294 0 1017.788.397L10 8.183 2.212.396A1.294 1.294 0 10.38 2.23l7.788 7.787L.38 17.804a1.294 1.294 0 00.916 2.212c.332 0 .664-.127.916-.38L10 11.85l7.788 7.787a1.292 1.292 0 001.832 0 1.294 1.294 0 000-1.832l-7.788-7.788z"/></symbol><symbol viewBox="0 0 430 430" id="earth" xmlns="http://www.w3.org/2000/svg"><path d="M215 0C96.451 0 0 96.451 0 215s96.451 215 215 215 215-96.451 215-215S333.549 0 215 0zm169.91 285.943c-21.135 50.439-64.104 89.547-117.032 105.441a169.291 169.291 0 002.757-5.344c4.547-9.202 9.325-15.69 17.344-22.161 6.137-4.956 18.186-12.632 16.216-22.311-1.421-6.995-9.407-9.865-15.442-11.575-9.575-2.713-19.818-3.416-29.699-4.1-8.557-.598-17.443-.293-25.797-2.424-12.502-3.182-15.32-14.004-16.111-25.412-.705-10.141-.554-20.567-5.541-29.744-6.422-11.811-21.202-15.17-33.458-16.297-10.346-.947-20.679-.448-30.969-2.172-9.9-1.658-19.276-5.135-29.442-4.741-13.175.508-19.092 9.438-24.712 19.765-2.774 5.1-20.296 44.321-30.591 53.115-17.752-26.207-28.919-57.215-31.143-90.632a23.352 23.352 0 004.361-1.664c5.728-2.844 9.741-7.978 15.974-10.011 5.943-1.936 13.621-.219 19.693.376 6.042.591 12.178 1.217 18.225.394 12.071-1.649 18.467-9.987 20.395-21.627 1.146-6.953.252-13.945.459-20.946.327-10.909 7.486-14.823 17.351-15.751 18.634-1.75 62.101 3.188 62.981-25.49.375-12.267-14.225-18.598-23.734-21.872-18.516-6.37-38.747-4.146-57.685-8.571-10.073-2.354-18.569-8.637-25.693-16.063C117.061 52.047 163.598 30.864 215 30.864c10.994 0 21.755.97 32.219 2.828-5.35.994-10.631 2.406-15.769 4.481-27.107 10.929-27.923 41.682-16.075 64.785 7.348 14.328 19.248 26.332 31.678 36.314 12.033 9.659 25.181 15.367 38.523 22.694 17.701 9.733 15.564 35.151 20.042 52.277 3.777 14.443 12.847 26.627 27.143 31.627 8.643 3.02 18.795.663 26.363 6.685 6.5 5.157 8.027 15.714 11.742 22.809 3.7 7.079 8.625 10.059 14.044 10.579z"/></symbol><symbol viewBox="0 0 330.005 330.005" id="exchange" xmlns="http://www.w3.org/2000/svg"><path d="M325.394 165.004c0-63.778-37.771-121.494-96.224-147.037-7.594-3.318-16.436.147-19.752 7.739-3.316 7.591.149 16.434 7.738 19.751 47.527 20.768 78.237 67.692 78.237 119.547 0 41.08-19.319 79.091-50.993 103.434l10.189-51.223c1.616-8.125-3.66-16.023-11.785-17.639-8.129-1.615-16.022 3.66-17.639 11.785l-16.711 84.005a14.999 14.999 0 0011.785 17.639l84.006 16.709c.988.196 1.973.291 2.943.291 7.01 0 13.275-4.939 14.695-12.077 1.616-8.125-3.66-16.021-11.785-17.638l-46.007-9.15c38.122-29.978 61.303-76.22 61.303-126.136zM87.209 130.428c.988.196 1.973.291 2.943.291 7.01 0 13.275-4.939 14.695-12.077l16.709-84.005c1.616-8.125-3.66-16.022-11.785-17.638L25.768.29C17.643-1.322 9.746 3.951 8.129 12.075c-1.616 8.126 3.66 16.022 11.785 17.639l46.043 9.157C27.838 68.879 4.611 115.196 4.611 165.004c0 63.78 37.771 121.495 96.225 147.036a14.957 14.957 0 005.998 1.259c5.78 0 11.29-3.362 13.753-8.998 3.316-7.592-.148-16.435-7.739-19.751-47.526-20.767-78.236-67.691-78.236-119.546 0-40.979 19.341-79.053 50.998-103.419L75.424 112.79c-1.616 8.125 3.66 16.021 11.785 17.638z"/></symbol><symbol viewBox="0 -28 512.001 512" id="heart" xmlns="http://www.w3.org/2000/svg"><path d="M256 455.516a30.022 30.022 0 01-19.793-7.438c-20.684-18.086-40.625-35.082-58.219-50.074l-.09-.078c-51.582-43.957-96.125-81.918-127.117-119.313C16.137 236.81 0 197.172 0 153.871c0-42.07 14.426-80.883 40.617-109.293C67.121 15.832 103.488 0 143.031 0c29.555 0 56.621 9.344 80.446 27.77C235.5 37.07 246.398 48.453 256 61.73c9.605-13.277 20.5-24.66 32.527-33.96C312.352 9.344 339.418 0 368.973 0c39.539 0 75.91 15.832 102.414 44.578C497.578 72.988 512 111.801 512 153.871c0 43.3-16.133 82.938-50.777 124.738-30.993 37.399-75.532 75.356-127.106 119.309-17.625 15.016-37.597 32.039-58.328 50.168a30.046 30.046 0 01-19.789 7.43zM143.031 29.992c-31.066 0-59.605 12.399-80.367 34.914-21.07 22.856-32.676 54.45-32.676 88.965 0 36.418 13.535 68.988 43.883 105.606 29.332 35.394 72.961 72.574 123.477 115.625l.093.078c17.66 15.05 37.68 32.113 58.516 50.332 20.961-18.254 41.012-35.344 58.707-50.418 50.512-43.051 94.137-80.223 123.469-115.617 30.344-36.618 43.879-69.188 43.879-105.606 0-34.516-11.606-66.11-32.676-88.965-20.758-22.515-49.3-34.914-80.363-34.914-22.758 0-43.653 7.235-62.102 21.5-16.441 12.719-27.894 28.797-34.61 40.047-3.452 5.785-9.53 9.238-16.261 9.238s-12.809-3.453-16.262-9.238c-6.71-11.25-18.164-27.328-34.61-40.047-18.448-14.265-39.343-21.5-62.097-21.5zm0 0"/></symbol><symbol viewBox="134.4 231.6 343.1 328.8" id="kyivstar" xmlns="http://www.w3.org/2000/svg"><path d="M283.4 295.1v-38.6c0-14.2 9.9-25 22.9-24.8 12.7.2 22.2 10.6 22.2 24.4v78.1c0 14.2-9.1 23.3-22.9 23.1-13.2 0-22.2-9.3-22.2-22.9-.2-13 0-26.2 0-39.3zm72.4 92.6c0-10.8 4.1-17.3 15.1-20.9 25.5-8.9 51.2-17.3 76.9-25.5 12.3-3.9 25 3 28.7 14 3.9 12.3-2.6 24.6-15.8 28.9-25.5 8.4-50.7 16.4-76.4 24.4-14.7 4.8-28.5-5.6-28.5-20.9zM283.4 473c.9 5-1.7 9.5-5 14-15.1 20.9-30.2 41.9-45.3 62.8-8 11-21.6 13.8-31.5 6.7-11.2-8-13.2-20.9-4.7-32.8 14.9-20.9 30.2-41.9 45.3-62.8 5.6-7.8 13.2-12.1 23.3-10.4 8.2 1.5 13.2 6 16.6 13.4 1.6 2.6 1.1 5.6 1.3 9.1zm136.9 64.3c0 10.4-6.5 18.8-16.4 22-8.9 2.8-18.3-.4-24.6-8.9-7.8-10.6-15.3-21.2-22.9-31.7-7.8-10.8-15.8-21.4-23.5-32.2-5.6-8-6.3-18.8-1.7-26.1 5.2-8.2 14-11.4 24.4-9.7 6.3 1.1 10.4 5.4 13.8 10.1 15.5 20.9 30.7 42.3 46 63.3 3.2 4.1 5.6 8.4 4.9 13.2zM256 387.7c0 15.3-13.6 25.7-28.3 21.2-25.5-8-50.9-16.2-76.4-24.4-13.2-4.3-19.6-16.6-15.8-28.9 3.7-11.7 16.4-17.9 29.4-13.8 25 7.8 49.9 16 74.7 24.4 11.7 3.6 16.4 10.7 16.4 21.5z"/></symbol><symbol viewBox="0 0 474 474" id="libra" xmlns="http://www.w3.org/2000/svg"><path d="M459 252.1h-3l-43.2-116.8c11.5-2.4 22.2-8.1 30.6-16.5 5.9-5.9 5.9-15.4 0-21.2-5.9-5.9-15.4-5.9-21.2 0-6 6-14.3 9.3-22.8 9-8.3-.3-15.9-3.8-21.3-9.9-16.9-19.2-41.3-30.2-66.8-30.2-22.7 0-43.4 8.5-59.2 22.5V50.5c0-8.3-6.7-15-15-15s-15 6.7-15 15V89c-15.8-14-36.5-22.5-59.2-22.5-25.6 0-49.9 11-66.8 30.2-5.4 6.2-13 9.7-21.3 9.9-8.5.3-16.8-3-22.8-9-5.9-5.9-15.4-5.9-21.2 0s-5.9 15.4 0 21.2c8.4 8.4 19.1 14.1 30.6 16.5L18 252.1h-3c-8.3 0-15 6.7-15 15v3.4c0 41.1 33.4 74.6 74.6 74.6h1.9c41.1 0 74.6-33.4 74.6-74.6v-3.4c0-8.3-6.7-15-15-15h-3L89.5 134.5c11.2-3 21.2-9.1 29-18 11.2-12.7 27.4-20 44.4-20 32.6 0 59.2 26.5 59.2 59.2v211.1c-20.4 5.4-36.4 21.4-41.8 41.8h-17.4c-8.3 0-15 6.7-15 15s6.7 15 15 15h148.3c8.3 0 15-6.7 15-15s-6.7-15-15-15h-17.4c-5.4-20.4-21.4-36.4-41.8-41.8V155.7c0-32.6 26.5-59.2 59.2-59.2 17 0 33.1 7.3 44.4 20 7.8 8.9 17.9 15 29 18L341 252.1h-3c-8.3 0-15 6.7-15 15v3.4c0 41.1 33.4 74.6 74.6 74.6h1.9c41.1 0 74.6-33.4 74.6-74.6v-3.4c-.1-8.3-6.8-15-15.1-15zm-382.6 63h-1.9c-20.6 0-37.9-14-43-33h88c-5.1 19-22.5 33-43.1 33zm-37.1-63l36.2-97.7 36.2 97.7H39.3zm222.2 156.4h-49c5.1-8.2 14.1-13.7 24.5-13.7s19.4 5.5 24.5 13.7zm137-254.1l36.2 97.7h-72.3l36.1-97.7zm1 160.7h-1.9c-20.6 0-37.9-14-43-33h87.9c-5.1 19-22.5 33-43 33z"/></symbol><symbol viewBox="158.6 200.3 343.3 349.8" id="lifecell" xmlns="http://www.w3.org/2000/svg"><path d="M320.8 549.4c-1.3 0-2.4 0-3.7-.2-6.7.6-13.2-.9-19.4-3-15.1-5.2-22-17.3-17.3-32.4 8.4-27.2 21.8-52 40.6-73.6 15.5-17.7 33.2-32.8 53.5-44.9 5.4-3.2 10.8-5.4 17.3-4.7 2.6.4 5.4.4 7.6 1.9 4.3 2.8 8.9 5 13.8 6.3.9.2 1.3.9 1.9 1.3 1.7 0 3.7.2 5.4.2 1.1-1.1 2.4-1.1 3.7-1.1 15.5-1.3 26.1-9.5 31.5-24 7.3-20.1-3.5-41.4-23.7-47.9-1.7-.6-3.7-.4-5-1.9-1.5-.9-3.2 0-4.7-.6h-1.7c-1.5.6-3.2-.2-4.7.6-1.1 1.3-2.8 1.3-4.3 1.7-13 3.9-22.2 11.9-25.7 25.3-2.4 9.3-7.8 14.2-17.1 16.6-9.1 2.2-17.3 6.3-25.7 10.1-27 12.5-51.2 29.1-73 49.2-15.3 14-27.6 30.2-38.6 47.7-3.2 5.2-7.6 9.3-12.7 12.3-9.1 5.4-17.9 1.3-22.7-5.2-3-4.3-5.2-9.1-6.5-14-3-11.9-1.9-24 .2-35.8.2-.9.4-1.7 1.3-2.4.2-5.2 1.7-10.1 3.5-15.1.4-1.3.9-2.8 1.9-3.7.2-.4.4-1.1.6-1.5.6-6 3.7-11.2 6-16.6 12.5-27.2 30.7-50.5 52.5-71 3-3 6-6.7 11-6.9 3-.2 5.6.4 8 2.2 7.6 5.4 16 8.9 25.7 8.6 17.1-.4 31.9-12.1 35.8-28.7 4.7-20.7-8.2-40.2-27.4-44-22-4.5-36.3 3.9-44.3 24.2-.9 1.9-.9 4.3-1.3 6.5-1.5 5.6-5 9.5-10.4 11.9-20.3 8.9-38.9 20.5-55.7 34.8-7.3 6-14.2 12.5-20.1 20.1-1.9 2.4-3.9 4.5-6.7 6-5.6 3.2-11.2 0-11.4-6.5 0-.9.2-1.5-.2-2.4.2-5.2-.6-10.4.6-15.3-.9-4.7 1.3-8.9 2.6-13.2.9-2.8 1.1-6 3.7-8 .2-.2.2-.4.2-.6 0-2.8 1.3-5.2 2.4-7.6 2.8-5.6 4.7-11.9 9.3-16.6.2-1.3.6-2.4 1.3-3.7 15.8-25 36.3-45.3 62-60 7.3-4.1 14.9-7.1 22.7-10.4 13.8-5.8 28.3-9.5 43-11.7 3-.4 6.3 1.1 9.3-.2 1.5-1.3 3-.9 4.5-.2h3.9c5.4-.9 10.8-1.5 16 .2 2.6.9 4.7-.6 7.3-.2 4.5.9 9.1 1.3 13.4 2.2 3 .9 6.3 1.3 9.3 2.2 1.1.2 1.9.9 2.6 1.7h.9c1.3-.9 2.6 0 3.9.2 1.3.4 2.8 1.1 4.3 1.5 1.7.6 3.7.9 5.2 1.7 1.5.6 3 1.1 4.5 1.7 1.3.6 2.6 1.1 3.9 1.5 2.2 1.1 4.3 1.7 6.3 2.8.4.2.6.2.9.4 1.9 1.1 3.9 1.9 5.6 2.8.4.2.6.2.9.4 5.8 2.8 11.2 6.3 16.6 9.7 1.3.9 2.6 1.7 3.9 2.6 1.3 1.1 2.6 2.2 4.1 3 .4.2.9.6 1.3.9 1.5 1.1 3 2.4 4.3 3.7.9.6 1.7 1.1 2.4 1.7.9.9 1.7 1.7 2.6 2.4 1.3 1.3 2.6 2.8 4.3 3.7 1.9 1.5 3.2 3.7 5 5.4 1.5 1.7 3.2 3.2 4.7 4.7 3.9 4.7 7.8 9.5 11.4 14.5.6.9 1.1 1.7 1.7 2.6.6 1.1 1.5 2.2 2.2 3.2.4.6.6 1.1 1.1 1.7.9 1.5 1.7 3 2.8 4.3.2.2.4.6.4.9.4 1.1 1.1 2.2 1.9 3 .2.2.4.6.4.9.6 1.5 1.5 3 2.6 4.5.2.2.4.6.4.9.6 1.3 1.3 2.8 1.9 4.1.4.9.6 1.5 1.1 2.4.4 1.7 1.3 3 2.2 4.5.4.9.6 1.5 1.1 2.4.4 1.1.9 2.2 1.5 3.2.2.2.2.6.4 1.1 1.3 3.2 2.4 6.5 3.5 9.7.4 1.3.9 2.4 1.1 3.7.2.6.4 1.5.6 2.2.4 1.3.9 2.6 1.1 3.9 1.5 5.8 2.4 11.7 3.5 17.7.2 1.1.2 2.2.4 3 0 1.5-.2 3 0 4.3.2 1.5.4 3 0 4.5.2 3.5-.4 6.7.4 10.1-.4 1.3-.4 2.8 0 4.1-.9 2.8.2 5.8-.6 8.9 0 1.5-.2 3.2-.2 4.7.2.2.4.6.4 1.1 0 1.3-.2 2.6-.2 3.9 0 1.1 0 1.9-.2 3-.9 3.9-1.3 7.6-1.9 11.4 0 .6-.2 1.3-.4 1.7-.9 3.9-1.7 7.8-2.8 11.7-.6 2.2-1.3 4.1-1.9 6.3-3 8.9-6 17.7-10.6 25.9-.4.9-.9 1.7-1.3 2.6-2.4 3.7-3.7 7.8-7.1 10.6-.9.6-1.3 1.3-1.5 2.4 0 1.7-.9 2.6-2.2 3.2-.6 1.1-1.5 2.2-2.2 3.2-2.2 5.2-5.6 9.3-9.9 12.5-.6.4-.4 1.5-.9 1.9-5.8 5.6-10.6 12.5-17.9 16.6-.4.4-1.1.9-1.5 1.3-2.6 3.7-6 6.3-10.4 8-1.1 0-1.7.6-2.2 1.5-3 4.1-7.8 6-11.9 8.4-5 3-10.1 5.6-15.5 8-1.3.4-2.4 1.1-3.7.9-2.2 1.1-4.7 1.3-6.9 2.6-4.3 2.6-9.1 3.9-14 4.5-.9-.2-1.5.2-2.4.6-.4.4-.9.9-1.5 1.1-4.5 1.3-9.1 1.7-13.6 3-6 1.5-12.3 1.7-18.6 1.5-3.2 0-6.7.2-9.9.2-2.5 1.7-5.1 1.7-7.7.6z"/></symbol><symbol id="phone" viewBox="0 0 51.4 51.4" xml:space="preserve" xmlns="http://www.w3.org/2000/svg"><style>.mst0{fill:#010002}</style><path class="mst0" d="M26 12.3c8.7.1 14.1-.5 14.8 9.1h10.6c0-14.9-13-16.9-25.7-16.9S.1 6.5.1 21.4h10.5c.7-9.8 6.8-9.2 15.4-9.1zM5.3 26.2c2.6 0 4.7.2 5.2-2.4.1-.3.1-.7.1-1.2H0c0 3.8 2.4 3.6 5.3 3.6zm35.6-3.6c-.1.5-.1.8 0 1.2.5 2.3 2.6 2.2 5.2 2.2 2.9 0 5.3.2 5.3-3.4H40.9z"/><path class="mst0" d="M35.7 20.1v-1.5c0-.7-.8-.7-1.7-.7h-1.6c-1 0-1.7 0-1.7.7v2.3h-11v-2.3c0-.7-.8-.7-1.7-.7h-1.6c-1 0-1.7 0-1.7.7v2.8C12.2 24 4 35.1 3.7 36.4v9c0 .8.7 1.5 1.5 1.5h40c.8 0 1.5-.7 1.5-1.5v-9c-.3-1.3-8.5-12.4-11-15v-1.3zM19.2 37.6c-.8 0-1.5-.7-1.5-1.5s.7-1.5 1.5-1.5 1.5.7 1.5 1.5-.7 1.5-1.5 1.5zm0-5c-.8 0-1.5-.7-1.5-1.5s.7-1.5 1.5-1.5 1.5.7 1.5 1.5-.7 1.5-1.5 1.5zm0-5c-.8 0-1.5-.7-1.5-1.5s.7-1.5 1.5-1.5 1.5.7 1.5 1.5c-.1.9-.7 1.5-1.5 1.5zm6 10c-.8 0-1.5-.7-1.5-1.5s.7-1.5 1.5-1.5 1.5.7 1.5 1.5-.7 1.5-1.5 1.5zm0-5c-.8 0-1.5-.7-1.5-1.5s.7-1.5 1.5-1.5 1.5.7 1.5 1.5-.7 1.5-1.5 1.5zm0-5c-.8 0-1.5-.7-1.5-1.5s.7-1.5 1.5-1.5 1.5.7 1.5 1.5c-.1.9-.7 1.5-1.5 1.5zm6 10c-.8 0-1.5-.7-1.5-1.5s.7-1.5 1.5-1.5 1.5.7 1.5 1.5-.7 1.5-1.5 1.5zm0-5c-.8 0-1.5-.7-1.5-1.5s.7-1.5 1.5-1.5 1.5.7 1.5 1.5-.7 1.5-1.5 1.5zm0-5c-.8 0-1.5-.7-1.5-1.5s.7-1.5 1.5-1.5 1.5.7 1.5 1.5c-.1.9-.7 1.5-1.5 1.5z"/></symbol><symbol viewBox="0 0 491.2 491.2" id="refresh" xmlns="http://www.w3.org/2000/svg"><path d="M55.9 262.8c-3-26-.5-51.1 6.3-74.3 22.6-77.1 93.5-133.8 177.6-134.8V3.3c0-2.8 3.5-4.3 5.8-2.6l103.7 76.2c1.7 1.3 1.7 3.9 0 5.1l-103.6 76.2c-2.4 1.7-5.8.2-5.8-2.6v-50.3c-55.3.9-102.5 35-122.8 83.2-7.7 18.2-11.6 38.3-10.5 59.4 1.5 29 12.4 55.7 29.6 77.3 9.2 11.5 7 28.3-4.9 37-11.3 8.3-27.1 6-35.8-5-21.3-26.6-35.5-59-39.6-94.4zM355.3 166c17.3 21.5 28.2 48.3 29.6 77.3 1.1 21.2-2.9 41.3-10.5 59.4-20.3 48.2-67.5 82.4-122.8 83.2v-50.3c0-2.8-3.5-4.3-5.8-2.6l-103.7 76.2c-1.7 1.3-1.7 3.9 0 5.1l103.6 76.2c2.4 1.7 5.8.2 5.8-2.6v-50.4c84.1-.9 155.1-57.6 177.6-134.8 6.8-23.2 9.2-48.3 6.3-74.3-4-35.4-18.2-67.8-39.5-94.4-8.8-11-24.5-13.3-35.8-5-11.8 8.7-14 25.5-4.8 37z"/></symbol><symbol viewBox="0 0 310.4 310.4" id="search" xmlns="http://www.w3.org/2000/svg"><path d="M273.6 215c49.1-49.1 49.1-129 0-178.1-49.1-49.1-129-49.1-178.1 0-41.7 41.7-48 103.6-18.9 152 0 0 2.1 3.5-.7 6.3l-64.3 64.3c-12.8 12.8-15.8 30.7-4.5 42l2 2c11.3 11.3 29.2 8.3 42-4.5l64.1-64.1c3-3 6.4-.9 6.4-.9 48.4 28.9 110.3 22.6 152-19zm-154.9-23.3c-36.3-36.3-36.3-95.3 0-131.6s95.3-36.3 131.6 0 36.3 95.3 0 131.6-95.3 36.3-131.6 0z"/><path d="M126.8 118.4c-1.7 0-3.4-.3-5.1-1-6.6-2.8-9.7-10.4-6.9-17 17.6-41.6 65.7-61.1 107.3-43.5 6.6 2.8 9.7 10.4 6.9 17-2.8 6.6-10.4 9.7-17 6.9-28.4-12-61.2 1.3-73.2 29.7-2.2 4.9-7 7.9-12 7.9z"/></symbol><symbol viewBox="0 0 24 24" id="sort-1" xmlns="http://www.w3.org/2000/svg"><path d="M5 0H1a1 1 0 00-1 1v4a1 1 0 001 1h4a1 1 0 001-1V1a1 1 0 00-1-1zm0 9H1a1 1 0 00-1 1v4a1 1 0 001 1h4a1 1 0 001-1v-4a1 1 0 00-1-1zm0 9H1a1 1 0 00-1 1v4a1 1 0 001 1h4a1 1 0 001-1v-4a1 1 0 00-1-1zm9-18h-4a1 1 0 00-1 1v4a1 1 0 001 1h4a1 1 0 001-1V1a1 1 0 00-1-1zm0 9h-4a1 1 0 00-1 1v4a1 1 0 001 1h4a1 1 0 001-1v-4a1 1 0 00-1-1zm0 9h-4a1 1 0 00-1 1v4a1 1 0 001 1h4a1 1 0 001-1v-4a1 1 0 00-1-1zm9-18h-4a1 1 0 00-1 1v4a1 1 0 001 1h4a1 1 0 001-1V1a1 1 0 00-1-1zm0 9h-4a1 1 0 00-1 1v4a1 1 0 001 1h4a1 1 0 001-1v-4a1 1 0 00-1-1zm0 9h-4a1 1 0 00-1 1v4a1 1 0 001 1h4a1 1 0 001-1v-4a1 1 0 00-1-1z"/></symbol><symbol viewBox="0 -52 512 512" id="sort-2" xmlns="http://www.w3.org/2000/svg"><path d="M0 0h113.293v113.293H0zm149.297 0H512v113.293H149.297zM0 147.008h113.293V260.3H0zm149.297 0H512V260.3H149.297zM0 294.012h113.293v113.297H0zm149.297 0H512v113.297H149.297zm0 0"/></symbol><symbol viewBox="0 0 512 512" id="telegram" xmlns="http://www.w3.org/2000/svg"><path d="M200.9 323.9L192.4 443c12.1 0 17.4-5.2 23.7-11.5l56.8-54.3 117.7 86.2c21.6 12 36.8 5.7 42.6-19.9l77.3-362.1c6.8-31.9-11.5-44.4-32.6-36.6l-454.1 174c-31 12-30.5 29.3-5.3 37.1L134.6 292l269.7-168.8c12.7-8.4 24.2-3.8 14.7 4.7l-218.1 196z"/></symbol><symbol viewBox="0 0 30.065 30.065" id="triangle" xmlns="http://www.w3.org/2000/svg"><path d="M26.511 12.004L6.233.463C4.082-.765 1.889.578 1.889 2.993v24.093c0 2.046 1.332 2.979 2.57 2.979.583 0 1.177-.184 1.767-.543l20.369-12.468c1.024-.629 1.599-1.56 1.581-2.555-.017-.996-.623-1.906-1.665-2.495zm-1.281 2.823L4.862 27.292a1.297 1.297 0 01-.319.147 1.354 1.354 0 01-.04-.353V2.994c0-.248.045-.373.045-.404.08.005.22.046.396.146l20.275 11.541c.25.143.324.267.348.24-.013.034-.098.161-.337.31z"/></symbol><symbol viewBox="-42 0 512 512.001" id="user" xmlns="http://www.w3.org/2000/svg"><path d="M210.352 246.633c33.882 0 63.218-12.153 87.195-36.13 23.969-23.972 36.125-53.304 36.125-87.19 0-33.876-12.152-63.211-36.129-87.192C273.566 12.152 244.23 0 210.352 0c-33.887 0-63.22 12.152-87.192 36.125s-36.129 53.309-36.129 87.188c0 33.886 12.156 63.222 36.13 87.195 23.98 23.969 53.316 36.125 87.19 36.125zM144.379 57.34c18.394-18.395 39.973-27.336 65.973-27.336 25.996 0 47.578 8.941 65.976 27.336 18.395 18.398 27.34 39.98 27.34 65.972 0 26-8.945 47.579-27.34 65.977-18.398 18.399-39.98 27.34-65.976 27.34-25.993 0-47.57-8.945-65.973-27.34-18.399-18.394-27.344-39.976-27.344-65.976 0-25.993 8.945-47.575 27.344-65.973zm281.75 336.363c-.692-9.976-2.09-20.86-4.149-32.351-2.078-11.579-4.753-22.524-7.957-32.528-3.312-10.34-7.808-20.55-13.375-30.336-5.77-10.156-12.55-19-20.16-26.277-7.957-7.613-17.699-13.734-28.965-18.2-11.226-4.44-23.668-6.69-36.976-6.69-5.227 0-10.281 2.144-20.043 8.5a2711.03 2711.03 0 01-20.879 13.46c-6.707 4.274-15.793 8.278-27.016 11.903-10.949 3.543-22.066 5.34-33.043 5.34-10.968 0-22.086-1.797-33.043-5.34-11.21-3.622-20.3-7.625-26.996-11.899a2853.13 2853.13 0 01-20.898-13.469c-9.754-6.355-14.809-8.5-20.035-8.5-13.313 0-25.75 2.254-36.973 6.7-11.258 4.457-21.004 10.578-28.969 18.199-7.609 7.281-14.39 16.12-20.156 26.273-5.558 9.785-10.058 19.992-13.371 30.34-3.2 10.004-5.875 20.945-7.953 32.524-2.063 11.476-3.457 22.363-4.149 32.363C.343 403.492 0 413.668 0 423.949c0 26.727 8.496 48.363 25.25 64.32C41.797 504.017 63.688 512 90.316 512h246.532c26.62 0 48.511-7.984 65.062-23.73 16.758-15.946 25.254-37.59 25.254-64.325-.004-10.316-.351-20.492-1.035-30.242zm-44.906 72.828c-10.934 10.406-25.45 15.465-44.38 15.465H90.317c-18.933 0-33.449-5.059-44.379-15.46-10.722-10.208-15.933-24.141-15.933-42.587 0-9.594.316-19.066.95-28.16.616-8.922 1.878-18.723 3.75-29.137 1.847-10.285 4.198-19.937 6.995-28.675 2.684-8.38 6.344-16.676 10.883-24.668 4.332-7.618 9.316-14.153 14.816-19.418 5.145-4.926 11.63-8.957 19.27-11.98 7.066-2.798 15.008-4.329 23.629-4.56 1.05.56 2.922 1.626 5.953 3.602 6.168 4.02 13.277 8.606 21.137 13.625 8.86 5.649 20.273 10.75 33.91 15.152 13.941 4.508 28.16 6.797 42.273 6.797 14.114 0 28.336-2.289 42.27-6.793 13.648-4.41 25.058-9.507 33.93-15.164 8.043-5.14 14.953-9.593 21.12-13.617 3.032-1.973 4.903-3.043 5.954-3.601 8.625.23 16.566 1.761 23.636 4.558 7.637 3.024 14.122 7.059 19.266 11.98 5.5 5.262 10.484 11.798 14.816 19.423 4.543 7.988 8.208 16.289 10.887 24.66 2.801 8.75 5.156 18.398 7 28.675 1.867 10.434 3.133 20.239 3.75 29.145v.008c.637 9.058.957 18.527.961 28.148-.004 18.45-5.215 32.38-15.937 42.582zm0 0"/></symbol><symbol viewBox="0 0 512 512" id="viber" xmlns="http://www.w3.org/2000/svg"><path d="M494 296.4c15.3-128.6-7.3-209.7-48.1-246.5-65.8-62.7-288.2-72-366.9 2.8C43.6 89.3 31.1 143 29.7 209.5c-1.4 66.5-3 191.1 113.1 224.9h.1l-.1 51.6s-.8 20.9 12.6 25.1c15.3 4.9 22.2-4.8 69.7-61.5 79.4 6.9 140.5-8.9 147.4-11.2 16-5.4 106.8-17.5 121.5-142zM232.9 413.2s-50.3 62.7-65.9 79c-5.1 5.3-10.7 4.8-10.6-5.7 0-6.9.4-85.7.4-85.7C58.4 372.6 64.2 266.5 65.3 211c1.1-55.5 11.2-101 41.2-131.6 69.1-64.8 264-50.3 313.7-3.6 60.7 53.8 39.1 205.9 39.2 211.1-12.5 104-86 110.6-99.6 115.1-5.9 1.9-59.5 15.7-126.9 11.2z"/><path d="M260.7 91.7c-8.2 0-8.2 12.8 0 12.9 63.7.5 116.2 44.9 116.8 126.4 0 8.6 12.6 8.5 12.5-.1-.7-87.8-58-138.7-129.3-139.2z"/><path d="M344.6 217.5c-.2 8.5 12.4 8.9 12.5.3 1-48.4-28.8-88.3-84.9-92.5-8.2-.6-9.1 12.3-.9 12.9 48.6 3.7 74.2 36.9 73.3 79.3zm-13.5 55c-10.5-6.1-21.3-2.3-25.7 3.7l-9.3 12c-4.7 6.1-13.5 5.3-13.5 5.3-64.3-17-81.5-84.3-81.5-84.3s-.8-9.1 5.1-14l11.6-9.6c5.8-4.6 9.5-15.7 3.6-26.6-15.8-28.5-26.4-38.4-31.8-45.9-5.7-7.1-14.2-8.7-23.1-3.9h-.2c-18.5 10.8-38.7 31-32.2 51.8 11 21.9 31.3 91.8 95.9 144.7 30.4 25 78.4 50.6 98.8 56.5l.2.3c20.1 6.7 39.6-14.3 50.1-33.3v-.2c4.6-9.2 3.1-17.9-3.7-23.6-12-11.7-30.1-24.6-44.3-32.9z"/><path d="M280.9 172.9c20.5 1.2 30.4 11.9 31.5 33.9.4 8.6 12.9 8 12.5-.6-1.4-28.7-16.3-44.7-43.3-46.2-8.2-.5-9 12.4-.7 12.9z"/></symbol><symbol viewBox="0 0 283.5 283.5" id="vodafon" xmlns="http://www.w3.org/2000/svg"><path d="M265.8 142v17.7c-1.3 7.4-2.6 14.8-3.8 22.2-2.4 6.3-4.7 12.5-7.1 18.8-2 3.7-4 7.4-6.1 11.1-.1 4-3.5 6.3-5.2 9.4-4 5.6-9.1 10.3-13.9 15.2-1.8 1.7-3.5 3.6-5.4 5.3-4.9 4-10 7.6-15.2 11-6.5 3.8-12.9 7.7-20.4 9.1-5.6 1.7-11.1 3.4-16.7 5.1-13.8 3-27.9 3.5-42 3-6.6-1.1-13.3-2.2-19.9-3.3l-15-4.8c-8.6-1.9-16-6.4-23.3-11-4.2-2.9-8.4-5.7-12.2-9.1-3.4-2.4-6.2-5.4-9.1-8.3-3.9-3.6-7.1-7.8-10.2-12.1-3.2-5.1-7.9-9.3-9-15.5-.7-2.2-1.6-4.2-3.1-6l-6-15.9c-4.2-15.4-5-31.1-3.9-47 1-5 1.9-10 2.9-15 2.4-6.7 4.8-13.3 7.2-20 1.3-1.5 2.1-3.2 2.7-5.1.7-5.4 4.5-9.2 7.3-13.4 3.7-5.3 7.7-10.3 12.2-15 2.3-2.2 4.6-4.5 7.2-6.3 4-3.8 8.6-7 13.2-10.1 6-3.3 11-8.4 18.3-9.1.7-.3 1.4-.6 2-.9 6-2 12-4.1 18-6.1 7-1.3 14-2.5 21-3.8 1.7-.1 3.3-.2 5-.2 11.7-.1 23.4.7 35 2.9 4.1 2.1 8.5 3.3 13 4.2-.8 3.3-3.5 1.9-5.5 2.4-2.8.1-5.6-.4-8.4.3-.4.2-.9.4-1.3.7-.4.2-.9.4-1.4.5-1.9.4-3.8.3-5.6 1-28 5.9-50.9 20-67.8 43.3-1 1-1.8 2-2.4 3.3-1.9 3.4-4.4 6.3-5.9 9.9-.9 1.7-1.5 3.5-2.1 5.3-7.3 16.7-9.4 34.1-6.1 51.8 5.2 27.8 26.1 48.7 54 53.5 16.1 2.7 31.5-.6 45.2-10.1 1.1-.8 2.4-1.3 3.2-2.5.4-.5.8-1.1 1.2-1.6.3-.4.6-.7.9-1 3.2-3.1 6.4-6.3 9.3-9.7 1.9-1.7 3.1-3.9 4.3-6.2 9.5-18.2 9.6-36.7 2-55.4-2.2-5.5-7-9.3-10-14.2-1-1.4-2.2-2.6-3.7-3.5-8.2-7.4-17.9-11.9-28.5-14.6-3.8-1-4.9-3.7-4.5-7.2.7-5.5 1.6-10.9 3.9-15.9 3-6.5 6.8-12.5 12-17.5 1.2-.8 2.5-1.3 3.4-2.4 1.6-2.2 3.9-3.2 6.4-4 2.2-.6 4.2-1.7 6.2-2.8 1.1-.5 2.1-1 3.3-1.2 1.6-.2 3.2-1.2 4.8 0 1 .6 2 1.3 3 1.9 1.3 1.1 3 .5 4.5 1 3.9 1.1 7.4 3.1 10.8 5.1 6.1 4.2 12.4 8.1 18 13.1 1.1 1.1 2.2 2.3 3.4 3.4 5.4 5.3 10.7 10.7 15 17 1.4 2.8 4.3 4.9 4.4 8.4 2.3 4.3 4.6 8.6 6.9 13 2 5.7 4.1 11.4 6.1 17.1 1 6.8 2.2 13.8 3.5 20.8z"/></symbol></svg>